# Blender 4.4.3
# www.blender.org
mtllib small_house.mtl
o Cube.001
v 10.162418 -0.156062 5.252839
v 10.162418 0.091289 5.252839
v 10.162418 -0.156062 -18.247923
v 10.162418 0.091289 -18.247923
v -10.162418 -0.156062 5.252839
v -10.162418 0.091289 5.252839
v -10.162418 -0.156062 -18.247923
v -10.162418 0.091289 -18.247923
v -1.028889 -0.084822 -2.413757
v -2.722097 -1.608440 -8.284357
v -2.810099 0.215837 -7.805867
vn -1.0000 -0.0000 -0.0000
vn -0.0000 -0.0000 1.0000
vn 1.0000 -0.0000 -0.0000
vn -0.0000 -0.0000 -1.0000
vn -0.0000 1.0000 -0.0000
vn -0.0000 -1.0000 -0.0000
vt 0.375000 0.000000
vt 0.625000 0.000000
vt 0.625000 0.250000
vt 0.375000 0.250000
vt 0.625000 0.500000
vt 0.375000 0.500000
vt 0.625000 0.750000
vt 0.375000 0.750000
vt 0.625000 1.000000
vt 0.375000 1.000000
vt 0.125000 0.500000
vt 0.125000 0.750000
vt 0.875000 0.500000
vt 0.875000 0.750000
s 0
f 1/1/1 2/2/1 4/3/1 3/4/1
f 3/4/2 4/3/2 8/5/2 7/6/2
f 7/6/3 8/5/3 6/7/3 5/8/3
f 5/8/4 6/7/4 2/9/4 1/10/4
f 3/11/5 7/6/5 5/8/5 1/12/5
f 8/5/6 4/13/6 2/14/6 6/7/6
o Cube
v -0.165448 -0.335601 -9.555815
v -0.165448 3.947954 -9.555815
v -0.165448 -0.335601 -9.896322
v -0.165448 3.947954 -9.896322
v 0.165448 -0.335601 -9.555815
v 0.165448 3.947954 -9.555815
v 0.165448 -0.335601 -9.896322
v 0.165448 3.947954 -9.896322
v -0.165448 -0.335601 -0.626952
v -0.165448 3.947954 -0.626952
v 0.165448 3.947954 -0.626952
v 0.165448 -0.335601 -0.626952
v -0.165448 -0.335601 -0.368686
v -0.165448 3.947954 -0.368686
v 0.165448 3.947954 -0.368686
v 0.165448 -0.335601 -0.368686
v 4.982701 3.947954 -0.626952
v 4.982701 -0.335601 -0.626952
v 4.982701 3.947954 -0.368686
v 4.982701 -0.335601 -0.368686
v 5.539925 3.947951 -0.725207
v 5.539925 -0.335604 -0.725207
v 5.539925 3.947951 -0.466941
v 5.539925 -0.335604 -0.466941
v 4.769522 3.947954 -9.951133
v 4.769522 -0.335601 -9.951133
v 4.769522 -0.335601 -9.610625
v 4.769522 3.947954 -9.610625
v 5.235410 3.947954 -9.951133
v 5.235410 -0.335601 -9.951133
v 5.235410 -0.335601 -9.610625
v 5.235410 3.947954 -9.610625
v 4.769522 3.947954 -0.512098
v 4.769522 -0.335601 -0.512098
v 5.235410 3.947954 -0.512098
v 5.235410 -0.335601 -0.512098
v 4.769522 -0.335601 -5.855187
v 4.769522 -0.335601 -4.267535
v 4.769522 3.947954 -4.267535
v 4.769522 3.947954 -5.855187
v 5.235410 -0.335601 -5.855187
v 5.235410 -0.335601 -4.267535
v 5.235410 3.947954 -4.267535
v 5.235410 3.947954 -5.855187
v -0.165448 2.313848 -9.555816
v -0.165448 1.298505 -9.555816
v -0.165448 1.298505 -9.896322
v -0.165448 2.313848 -9.896322
v 0.165448 1.298505 -9.896322
v 0.165448 2.313848 -9.896322
v 0.165448 1.298505 -9.555816
v 0.165448 2.313848 -9.555816
v -0.165448 2.313848 -0.626952
v -0.165448 1.298505 -0.626952
v 0.165448 1.298505 -0.626952
v 0.165448 2.313848 -0.626952
v -0.165448 2.313848 -0.368686
v -0.165448 1.298505 -0.368686
v 0.165448 1.298505 -0.368686
v 0.165448 2.313848 -0.368686
v 4.982701 1.298505 -0.626952
v 4.982701 2.313848 -0.626952
v 4.982701 1.298505 -0.368686
v 4.982701 2.313848 -0.368686
v 5.539925 1.298507 -0.725207
v 5.539925 2.313850 -0.725207
v 5.539925 1.298507 -0.466941
v 5.539925 2.313850 -0.466941
v 4.769522 1.298505 -9.951133
v 4.769522 2.313848 -9.951133
v 4.769522 1.298505 -9.610626
v 4.769522 2.313848 -9.610626
v 5.235410 1.298505 -9.951133
v 5.235410 2.313848 -9.951133
v 5.235410 1.298505 -9.610626
v 5.235410 2.313848 -9.610626
v 4.769522 1.298505 -0.512097
v 4.769522 2.313848 -0.512097
v 5.235410 1.298505 -0.512097
v 5.235410 2.313848 -0.512097
v 5.235410 1.298505 -5.855188
v 5.235410 2.313848 -5.855188
v 5.235410 1.298505 -4.267535
v 5.235410 2.313848 -4.267535
v 4.769522 2.313848 -5.855188
v 4.769522 1.298505 -5.855188
v 4.769522 2.313848 -4.267535
v 4.769522 1.298505 -4.267535
v 4.769522 3.947954 -6.989000
v 5.235410 3.947954 -6.989000
v 5.235410 2.313848 -6.989000
v 4.769522 2.313848 -6.989000
v 4.769522 2.649505 -4.267535
v 5.235410 2.649505 -4.267535
v 5.235410 2.649505 -6.989000
v 4.769522 2.649505 -6.989000
v 5.218775 2.313848 -0.512097
v 5.218775 -0.335601 -0.512098
v 5.218775 -0.335601 -4.267535
v 5.218775 2.313848 -4.267535
v 5.208908 2.313848 -9.610626
v 5.208908 -0.335601 -9.610625
v 5.208908 -0.335601 -5.855187
v 5.208908 2.313848 -5.855188
v -0.165448 4.521718 -9.555815
v -0.165448 4.521718 -9.896322
v 0.165449 4.521718 -9.896322
v 0.165449 4.521718 -9.555815
v 0.165449 4.521718 -0.626952
v -0.165448 4.521718 -0.626952
v 0.165449 4.521718 -0.368686
v -0.165448 4.521718 -0.368686
v 4.982701 4.521718 -0.368686
v 4.982701 4.521718 -0.626952
v 5.539926 4.521715 -0.466941
v 5.539926 4.521715 -0.725207
v 4.769522 4.521718 -9.951133
v 4.769522 4.521718 -9.610625
v 5.235411 4.521718 -9.951133
v 5.235411 4.521718 -9.610625
v 5.235411 4.521718 -0.512098
v 4.769522 4.521718 -0.512098
v 4.769522 4.521718 -5.855187
v 5.235411 4.521718 -5.855187
v 4.769522 4.521718 -4.267535
v 5.235411 4.521718 -4.267535
v 5.005569 3.947951 -0.626952
v 5.005569 3.947951 -9.555815
v 5.005570 4.521715 -0.626952
v 5.005570 4.521715 -9.555815
v 0.165448 3.947954 -9.719939
v 0.165449 4.521718 -9.719939
v 5.005569 3.947951 -9.719939
v 5.005570 4.521715 -9.719939
v 5.249091 3.947954 -0.512098
v 5.249091 3.947954 -4.267535
v 5.249091 1.298505 -4.267535
v 5.249091 1.298505 -0.512097
vn -1.0000 -0.0000 -0.0000
vn -0.0000 -0.0000 -1.0000
vn 0.0119 -0.0000 0.9999
vn -0.0000 -1.0000 -0.0000
vn 1.0000 -0.0000 -0.0000
vn -0.0000 -0.0000 1.0000
vn 0.1737 -0.0000 0.9848
vn -0.1737 -0.0000 -0.9848
vn -0.0119 -0.0000 -0.9999
vn -0.0000 1.0000 -0.0000
vt 0.541667 0.000000
vt 0.625000 0.000000
vt 0.625000 0.250000
vt 0.541667 0.250000
vt 0.625000 0.500000
vt 0.541667 0.500000
vt 0.458333 0.750000
vt 0.375000 0.750000
vt 0.125000 0.750000
vt 0.125000 0.500000
vt 0.375000 0.500000
vt 0.000000 0.000000
vt 0.541667 0.750000
vt 0.625000 0.750000
vt 0.458333 0.000000
vt 0.375000 0.000000
vt 0.625000 1.000000
vt 0.541667 1.000000
vt 0.541667 0.750000
vt 0.458333 0.500000
vt 0.458333 0.750000
vt 0.458333 1.000000
vt 0.375000 1.000000
vt 0.375000 0.250000
vt 0.458333 0.250000
vt 0.875000 0.500000
vt 0.875000 0.750000
s 0
f 57/15/7 13/16/7 15/17/7 58/18/7
f 58/18/8 15/17/8 19/19/8 60/20/8
f 63/21/9 16/22/9 38/22/9 83/21/9
f 12/23/10 16/22/10 23/22/10 20/23/10
f 14/24/10 18/25/10 16/22/10 12/23/10
f 51/26/7 50/26/7 136/26/7 134/26/7
f 20/23/10 23/22/10 27/22/10 24/23/10
f 13/16/7 21/16/7 121/16/7 116/16/7
f 62/27/11 17/28/11 22/28/11 66/27/11
f 56/29/7 12/30/7 20/30/7 64/29/7
f 70/27/12 26/28/12 25/31/12 69/32/12
f 64/29/7 20/30/7 24/30/7 68/29/7
f 30/28/13 34/28/13 126/28/13 124/28/13
f 26/28/12 30/28/12 124/28/12 122/28/12
f 50/28/7 44/28/7 133/28/7 136/28/7
f 71/21/12 27/22/12 31/22/12 75/21/12
f 66/27/8 22/28/8 28/28/8 72/27/8
f 27/22/10 23/22/10 29/22/10 31/22/10
f 76/27/11 32/28/11 34/28/11 78/33/11
f 75/21/13 31/22/13 35/22/13 79/21/13
f 31/22/10 29/22/10 33/22/10 35/22/10
f 72/27/14 28/28/14 32/28/14 76/27/14
f 89/26/10 98/26/10 111/26/10 108/26/10
f 16/22/10 18/25/10 37/25/10 38/22/10
f 43/28/11 40/19/11 130/19/11 131/28/11
f 60/20/15 19/19/15 36/19/15 80/20/15
f 84/20/11 40/19/11 43/28/11 86/27/11
f 38/22/10 37/25/10 41/25/10 42/22/10
f 15/17/7 13/16/7 116/16/7 117/17/7
f 80/20/8 36/19/8 40/19/8 84/20/8
f 89/21/12 45/22/12 47/22/12 91/21/12
f 49/22/10 53/22/10 47/22/10 45/22/10
f 34/28/11 32/28/11 127/28/11 126/28/11
f 94/27/11 54/28/11 46/28/11 90/27/11
f 86/27/11 43/28/11 55/28/11 92/27/11
f 25/31/12 26/28/12 122/28/12 123/31/12
f 55/28/11 43/28/11 131/28/11 135/28/11
f 38/22/10 42/22/10 52/22/10 48/22/10
f 83/21/12 38/22/12 113/22/12 112/21/12
f 101/26/11 54/26/11 105/26/11 106/26/11
f 39/28/7 82/27/7 97/27/7 51/28/7
f 42/22/11 87/21/11 93/21/11 52/22/11
f 53/22/11 95/21/11 91/21/11 47/22/11
f 44/28/12 88/27/12 90/27/12 46/28/12
f 88/27/8 89/21/8 91/21/8 90/27/8
f 37/25/8 81/34/8 85/34/8 41/25/8
f 81/34/12 80/20/12 84/20/12 85/34/12
f 41/25/11 85/34/11 87/21/11 42/22/11
f 85/34/7 84/20/7 86/27/7 87/21/7
f 18/25/15 61/34/15 81/34/15 37/25/15
f 61/34/9 60/20/9 80/20/9 81/34/9
f 50/26/12 99/26/12 148/26/12 147/26/12
f 29/22/14 73/21/14 77/35/14 33/22/14
f 73/21/13 72/27/13 76/27/13 77/35/13
f 30/28/13 74/27/13 78/33/13 34/28/13
f 74/27/14 75/21/14 79/21/14 78/33/14
f 33/22/11 77/35/11 79/21/11 35/22/11
f 77/35/7 76/27/7 78/33/7 79/21/7
f 23/22/8 67/21/8 73/21/8 29/22/8
f 67/21/12 66/27/12 72/27/12 73/21/12
f 26/28/12 70/27/12 74/27/12 30/28/12
f 70/27/8 71/21/8 75/21/8 74/27/8
f 21/16/7 65/15/7 69/15/7 25/16/7
f 65/15/11 64/29/11 68/29/11 69/15/11
f 27/22/12 71/21/12 68/36/12 24/37/12
f 71/21/8 70/27/8 69/32/8 68/36/8
f 13/16/7 57/15/7 65/15/7 21/16/7
f 57/15/11 56/29/11 64/29/11 65/15/11
f 16/22/11 63/21/11 67/21/11 23/22/11
f 63/21/7 62/27/7 66/27/7 67/21/7
f 17/28/9 62/27/9 82/27/9 39/28/9
f 62/27/15 63/21/15 83/21/15 82/27/15
f 14/38/8 59/39/8 61/34/8 18/25/8
f 59/39/12 58/18/12 60/20/12 61/34/12
f 12/30/7 56/29/7 59/39/7 14/38/7
f 56/29/11 57/15/11 58/18/11 59/39/11
f 105/28/10 104/28/10 107/28/10 106/28/10
f 54/28/12 50/28/12 104/28/12 105/28/12
f 50/26/7 100/26/7 107/26/7 104/26/7
f 100/26/8 101/26/8 106/26/8 107/26/8
f 111/21/7 110/22/7 109/22/7 108/21/7
f 98/26/12 49/26/12 110/26/12 111/26/12
f 49/22/16 45/22/16 109/22/16 110/22/16
f 45/22/8 89/21/8 108/21/8 109/22/8
f 112/21/7 113/22/7 114/22/7 115/21/7
f 38/22/16 48/22/16 114/22/16 113/22/16
f 48/26/8 96/26/8 115/26/8 114/26/8
f 96/26/10 83/26/10 112/26/10 115/26/10
f 118/19/16 117/40/16 116/41/16 119/28/16
f 119/28/16 116/41/16 121/41/16 120/28/16
f 120/28/16 121/41/16 123/41/16 122/28/16
f 120/28/16 122/28/16 124/28/16 125/28/16
f 125/28/16 124/28/16 126/28/16 127/28/16
f 118/19/16 119/28/16 129/28/16 128/19/16
f 128/19/16 129/28/16 131/28/16 130/19/16
f 137/28/16 136/28/16 133/28/16 132/28/16
f 131/28/16 129/28/16 134/28/16 135/28/16
f 135/28/16 134/28/16 136/28/16 137/28/16
f 28/28/8 22/28/8 120/28/8 125/28/8
f 44/28/12 46/28/12 132/28/12 133/28/12
f 21/16/7 25/16/7 123/16/7 121/16/7
f 32/28/14 28/28/14 125/28/14 127/28/14
f 17/28/7 119/28/7 143/28/7 142/28/7
f 17/28/9 39/28/9 129/28/9 119/28/9
f 19/19/8 15/17/8 117/17/8 118/19/8
f 39/28/7 51/28/7 134/28/7 129/28/7
f 46/28/11 54/28/11 137/28/11 132/28/11
f 36/19/15 19/19/15 118/19/15 128/19/15
f 40/19/8 36/19/8 128/19/8 130/19/8
f 54/26/11 55/26/11 135/26/11 137/26/11
f 138/28/11 139/28/11 141/28/11 140/28/11
f 22/28/10 17/28/10 139/28/10 138/28/10
f 119/28/16 120/28/16 140/28/16 141/28/16
f 120/28/12 22/28/12 138/28/12 140/28/12
f 142/28/8 143/28/8 145/28/8 144/28/8
f 119/28/16 141/28/16 145/28/16 143/28/16
f 139/28/10 17/28/10 142/28/10 144/28/10
f 141/28/11 139/28/11 144/28/11 145/28/11
f 147/28/7 148/27/7 149/27/7 146/28/7
f 88/27/8 44/28/8 146/28/8 149/27/8
f 44/28/10 50/28/10 147/28/10 146/28/10
f 99/26/16 88/26/16 149/26/16 148/26/16
l 52 53
l 95 102
l 98 103
